<svg width="960" height="960" viewBox="0 0 960 960" fill="none" xmlns="http://www.w3.org/2000/svg">
  <rect width="960" height="960" fill="#0B0D10"/>
  <path d="M480 110L770 230V490C770 677 640 820 480 860C320 820 190 677 190 490V230L480 110Z" fill="#111827" stroke="#C8FF1A" stroke-width="24"/>
  <path d="M480 220L640 300V480C640 590 572 670 480 708C388 670 320 590 320 480V300L480 220Z" fill="#1F2937" stroke="#E5E7EB" stroke-width="16"/>
  <path d="M420 350L480 296L540 350L520 454H440L420 350Z" fill="#E5E7EB"/>
  <rect x="434" y="454" width="92" height="116" rx="10" fill="#9CA3AF"/>
  <path d="M362 430L600 430L552 490H410L362 430Z" fill="#C8FF1A"/>
  <path d="M352 612H610L570 696H390L352 612Z" fill="#111827" stroke="#C8FF1A" stroke-width="14"/>
  <text x="480" y="670" text-anchor="middle" fill="#C8FF1A" font-size="116" font-family="Arial Black, Arial, sans-serif" letter-spacing="8">TITANS</text>
</svg>
